# File created by Blade
# Date/Time:  Fri Jan 16 19:18:48 2015
#---------------------------------------------------------
:version 1.10
:name HOM
:units
  mass 1.0
  length 1.000000
  angle deg
:documentation
     Acclaim Skeleton File
:root
   axis xyz
   order TX TY TZ RX RY RZ
   position 0.000000 0.000000 0.000000
   orientation 0 0 0
:bonedata
   begin
      id 1
      name Spine_dum
      direction 0.000000 1.000000 0.000000
      length 7.067664
      axis 0.0 0.0 0.0 xyz
   end
   begin
      id 2
      name LeftUpLeg_dum
      direction 1.000000 0.000000 0.000000
      length 4.013002
      axis 0.0 0.0 0.0 xyz
   end
   begin
      id 3
      name RightUpLeg_dum
      direction -1.000000 0.000000 0.000000
      length 4.013002
      axis 0.0 0.0 0.0 xyz
   end
   begin
      id 4
      name Spine
      direction 0.000000 1.000000 0.000000
      length 0.000000
      axis 0.0 0.0 0.0 xyz
      dof rx ry rz
   end
   begin
      id 5
      name Spine_dum1
      direction 0.000000 1.000000 0.000000
      length 15.039886
      axis 0.0 0.0 0.0 xyz
   end
   begin
      id 6
      name Spine_dum2
      direction 0.000000 1.000000 0.000000
      length 10.530368
      axis 0.0 0.0 0.0 xyz
   end
   begin
      id 7
      name Spine_dum3
      direction 0.000000 1.000000 0.000000
      length 10.530368
      axis 0.0 0.0 0.0 xyz
   end
   begin
      id 8
      name Head
      direction 0.000000 1.000000 0.000000
      length 4.527550
      axis 0.0 0.0 0.0 xyz
      dof rx ry rz
   end
   begin
      id 9
      name LeftShoulder
      direction 1.000000 0.000000 0.000000
      length 7.028855
      axis 0.0 0.0 -90.0 xyz
      dof rx ry rz
   end
   begin
      id 10
      name LeftArm
      direction 1.000000 0.000000 0.000000
      length 10.797705
      axis 0.0 0.0 -90.0 xyz
      dof rx ry rz
   end
   begin
      id 11
      name LeftForeArm
      direction 1.000000 0.000000 0.000000
      length 7.907442
      axis 0.0 0.0 -90.0 xyz
      dof ry rz rx
   end
   begin
      id 12
      name LeftHand
      direction 0.000000 0.000000 0.000000
      length 0.000000
      axis 0.0 0.0 -90.0 xyz
      dof rx ry rz
   end
   begin
      id 13
      name LeftHand_dum1
      direction 0.000000 0.000000 0.000000
      length 0.000000
      axis 0.0 0.0 -90.0 xyz
   end
   begin
      id 14
      name LeftHand_dum2
      direction 1.000000 0.000000 0.000000
      length 3.937000
      axis 0.0 0.0 -90.0 xyz
   end
   begin
      id 15
      name LeftHandThumb1
      direction 0.000000 0.000000 1.000000
      length 3.937000
      axis 0.0 0.0 -90.0 xyz
      dof rx rz ry
   end
   begin
      id 16
      name RightShoulder
      direction -1.000000 0.000000 0.000000
      length 7.028855
      axis 0.0 0.0 90.0 xyz
      dof rx ry rz
   end
   begin
      id 17
      name RightArm
      direction -1.000000 0.000000 0.000000
      length 10.797705
      axis 0.0 0.0 90.0 xyz
      dof rx ry rz
   end
   begin
      id 18
      name RightForeArm
      direction -1.000000 0.000000 0.000000
      length 7.907442
      axis 0.0 0.0 90.0 xyz
      dof ry rz rx
   end
   begin
      id 19
      name RightHand
      direction 0.000000 0.000000 0.000000
      length 0.000000
      axis 0.0 0.0 90.0 xyz
      dof rx ry rz
   end
   begin
      id 20
      name RightHand_dum1
      direction 0.000000 0.000000 0.000000
      length 0.000000
      axis 0.0 0.0 90.0 xyz
   end
   begin
      id 21
      name RightHand_dum2
      direction -1.000000 0.000000 0.000000
      length 3.937000
      axis 0.0 0.0 90.0 xyz
   end
   begin
      id 22
      name RightHandThumb1
      direction 0.000000 0.000000 1.000000
      length 3.937000
      axis 0.0 0.0 90.0 xyz
      dof rx rz ry
   end
   begin
      id 23
      name LeftUpLeg
      direction 0.000000 -1.000000 0.000000
      length 16.899758
      axis 0.0 0.0 0.0 xyz
      dof rx ry rz
   end
   begin
      id 24
      name LeftLeg
      direction 0.000000 -1.000000 0.000000
      length 17.389183
      axis 0.0 0.0 0.0 xyz
      dof rx ry rz
   end
   begin
      id 25
      name LeftFoot
      direction 0.000000 -0.258819 0.965926
      length 4.924528
      axis 15.0 0.0 0.0 xyz
      dof rx ry rz
   end
   begin
      id 26
      name LeftToeBase
      direction 0.000000 0.000000 1.000000
      length 2.952750
      axis 0.0 0.0 0.0 xyz
      dof rx ry rz
   end
   begin
      id 27
      name RightUpLeg
      direction 0.000000 -1.000000 0.000000
      length 16.899758
      axis 0.0 0.0 0.0 xyz
      dof rx ry rz
   end
   begin
      id 28
      name RightLeg
      direction 0.000000 -1.000000 0.000000
      length 17.389183
      axis 0.0 0.0 0.0 xyz
      dof rx ry rz
   end
   begin
      id 29
      name RightFoot
      direction 0.000000 -0.258819 0.965926
      length 4.924528
      axis 15.0 0.0 0.0 xyz
      dof rx ry rz
   end
   begin
      id 30
      name RightToeBase
      direction 0.000000 0.000000 1.000000
      length 2.952750
      axis 0.0 0.0 0.0 xyz
      dof rx ry rz
   end
:hierarchy
   begin
      root Spine_dum LeftUpLeg_dum RightUpLeg_dum
      Spine_dum Spine
      LeftUpLeg_dum LeftUpLeg
      RightUpLeg_dum RightUpLeg
      Spine Spine_dum1 Spine_dum2 Spine_dum3
      Spine_dum1 Head
      Spine_dum2 LeftShoulder
      Spine_dum3 RightShoulder
      LeftShoulder LeftArm
      LeftArm LeftForeArm
      LeftForeArm LeftHand
      LeftHand LeftHand_dum1 LeftHand_dum2
      LeftHand_dum1 LeftHandThumb1
      RightShoulder RightArm
      RightArm RightForeArm
      RightForeArm RightHand
      RightHand RightHand_dum1 RightHand_dum2
      RightHand_dum1 RightHandThumb1
      LeftUpLeg LeftLeg
      LeftLeg LeftFoot
      LeftFoot LeftToeBase
      RightUpLeg RightLeg
      RightLeg RightFoot
      RightFoot RightToeBase
   end

# File created by Blade
# Date/Time:  Fri Jan 16 19:18:57 2015
# Frame Rate: 120.000 fps
#------------------------------------------------------
:FULLY-SPECIFIED
:DEGREES
1
root 19.817533 35.508841 -22.568372 -171.036103 1.694723 -179.222329
Spine -20.162662 0.752540 -0.002780
Head 8.538105 0.350118 1.725984
LeftShoulder -12.711352 -28.801800 18.057918
LeftArm 4.586193 2.400074 -7.686238
LeftForeArm 8.899531 -0.000000 -2.384965
LeftHand -6.247570 -0.000000 -6.984349
LeftHandThumb1 -26.253704 0.000000 33.147579
RightShoulder -12.236982 -9.151896 -9.136733
RightArm 7.540437 39.030911 14.764463
RightForeArm -32.626808 0.000000 3.955994
RightHand -6.291123 -0.000000 9.390723
RightHandThumb1 -24.326973 -0.000000 -32.862282
LeftUpLeg 0.878129 10.282738 -0.292300
LeftLeg -6.712124 -0.000000 0.000000
LeftFoot -21.195281 27.192569 -13.843707
LeftToeBase 25.780105 -0.000000 -0.000000
RightUpLeg -0.805278 -3.893536 -0.164877
RightLeg -2.783952 -0.000000 0.000000
RightFoot -21.790130 -24.823488 14.775298
RightToeBase 24.048988 -0.000000 -0.000000
2
root 19.818806 35.508638 -22.566074 -171.028606 1.687904 -179.217459
Spine -20.165667 0.757161 0.011192
Head 8.542982 0.346098 1.711013
LeftShoulder -12.713905 -28.801523 18.056076
LeftArm 4.575218 2.392152 -7.679366
LeftForeArm 8.912114 0.000000 -2.365040
LeftHand -6.253455 0.000000 -6.974955
LeftHandThumb1 -26.253704 0.000000 33.147579
RightShoulder -12.228345 -9.142695 -9.153806
RightArm 7.506819 39.015074 14.734617
RightForeArm -32.544382 -0.000000 3.962630
RightHand -6.297344 0.000000 9.394852
RightHandThumb1 -24.326973 -0.000000 -32.862282
LeftUpLeg 0.873878 10.266088 -0.284503
LeftLeg -6.725784 -0.000000 0.000000
LeftFoot -21.209676 27.204369 -13.833861
LeftToeBase 25.840671 -0.000000 -0.000000
RightUpLeg -0.812641 -3.886221 -0.156577
RightLeg -2.787121 -0.000000 0.000000
RightFoot -21.806006 -24.880591 14.703201
RightToeBase 24.258238 -0.000000 -0.000000
3
root 19.819601 35.508582 -22.564464 -171.027898 1.684181 -179.219739
Spine -20.158509 0.760171 0.013931
Head 8.541093 0.322465 1.695052
LeftShoulder -12.736003 -28.779399 18.060766
LeftArm 4.590644 2.368036 -7.680932
LeftForeArm 8.910643 0.000000 -2.357612
LeftHand -6.266456 -0.000000 -6.954818
LeftHandThumb1 -26.253704 0.000000 33.147579
RightShoulder -12.234501 -9.159396 -9.156168
RightArm 7.514536 39.044999 14.738496
RightForeArm -32.548314 0.000000 3.967104
RightHand -6.301447 -0.000000 9.368564
RightHandThumb1 -24.326973 -0.000000 -32.862282
LeftUpLeg 0.867999 10.281626 -0.287406
LeftLeg -6.725622 -0.000000 0.000000
LeftFoot -21.204828 27.197514 -13.843539
LeftToeBase 25.887405 -0.000000 -0.000000
RightUpLeg -0.812885 -3.894487 -0.157429
RightLeg -2.795625 -0.000000 0.000000
RightFoot -21.766630 -24.796646 14.846361
RightToeBase 23.781972 -0.000000 -0.000000
4
root 19.820597 35.508801 -22.562330 -171.025130 1.675450 -179.223971
Spine -20.155931 0.757122 0.014573
Head 8.543300 0.294994 1.679007
LeftShoulder -12.748077 -28.760703 18.064451
LeftArm 4.593967 2.339183 -7.681579
LeftForeArm 8.894903 0.000000 -2.354226
LeftHand -6.261860 0.000000 -6.967313
LeftHandThumb1 -26.253704 0.000000 33.147579
RightShoulder -12.267002 -9.190880 -9.165396
RightArm 7.691821 39.490419 14.905257
RightForeArm -33.054767 -0.000000 3.852531
RightHand -6.266835 -0.000000 9.199200
RightHandThumb1 -24.326973 -0.000000 -32.862282
LeftUpLeg 0.850815 10.297658 -0.290873
LeftLeg -6.707628 -0.000000 0.000000
LeftFoot -21.193452 27.174619 -13.823800
LeftToeBase 25.839085 -0.000000 -0.000000
RightUpLeg -0.810003 -3.897558 -0.159832
RightLeg -2.805227 -0.000000 0.000000
RightFoot -21.771225 -24.833373 14.842324
RightToeBase 23.847556 -0.000000 -0.000000
